<svg xmlns="http://www.w3.org/2000/svg" viewBox="0 0 512 512" width="512" height="512" role="img" aria-label="OneMusic">
  <defs>
    <linearGradient id="tile" x1="0" y1="0" x2="1" y2="1">
      <stop offset="0%" stop-color="#FB5C74"/>
      <stop offset="52%" stop-color="#FA2D48"/>
      <stop offset="100%" stop-color="#C9184A"/>
    </linearGradient>
    <radialGradient id="label" cx="42%" cy="38%" r="70%">
      <stop offset="0%" stop-color="#FFFFFF"/>
      <stop offset="60%" stop-color="#FFD9DF"/>
      <stop offset="100%" stop-color="#FA2D48"/>
    </radialGradient>
    <linearGradient id="sheen" x1="0" y1="0" x2="0" y2="1">
      <stop offset="0%" stop-color="#FFFFFF" stop-opacity="0.35"/>
      <stop offset="100%" stop-color="#FFFFFF" stop-opacity="0"/>
    </linearGradient>
  </defs>
  <rect width="512" height="512" rx="116" fill="url(#tile)"/>
  <path d="M0 150 A116 116 0 0 1 116 0 H396 A116 116 0 0 1 470 32 C300 40 120 120 40 300 A116 116 0 0 1 0 396 Z" fill="url(#sheen)"/>
  <circle cx="256" cy="256" r="152" fill="#131316"/>
  <circle cx="256" cy="256" r="128" fill="none" stroke="#FFFFFF" stroke-opacity="0.10" stroke-width="3"/>
  <circle cx="256" cy="256" r="104" fill="none" stroke="#FFFFFF" stroke-opacity="0.10" stroke-width="3"/>
  <circle cx="256" cy="256" r="80" fill="none" stroke="#FFFFFF" stroke-opacity="0.10" stroke-width="3"/>
  <path d="M150 150 A150 150 0 0 1 352 132" fill="none" stroke="#FFFFFF" stroke-opacity="0.28" stroke-width="10" stroke-linecap="round"/>
  <circle cx="256" cy="256" r="56" fill="url(#label)"/>
  <g fill="#131316">
    <rect x="270" y="212" width="12" height="70" rx="6"/>
    <path d="M282 212 C300 214 310 224 310 240 C305 230 296 226 282 230 Z"/>
    <ellipse cx="256" cy="284" rx="20" ry="15" transform="rotate(-18 256 284)"/>
  </g>
  <circle cx="256" cy="256" r="10" fill="#131316"/>
</svg>
